<svg style="position: absolute; width: 0; height: 0;" width="0" height="0" version="1.1" xmlns="http://www.w3.org/2000/svg" xmlns:xlink="http://www.w3.org/1999/xlink">
<defs>
<symbol id="icon-error_outline" viewBox="0 0 1024 1024">
<title>error_outline</title>
<path class="path1" d="M512 854q140 0 241-101t101-241-101-241-241-101-241 101-101 241 101 241 241 101zM512 86q176 0 301 125t125 301-125 301-301 125-301-125-125-301 125-301 301-125zM470 298h84v256h-84v-256zM470 640h84v86h-84v-86z"></path>
</symbol>
<symbol id="icon-library_books" viewBox="0 0 1024 1024">
<title>library_books</title>
<path class="path1" d="M810 298v-84h-426v84h426zM640 640v-86h-256v86h256zM810 470v-86h-426v86h426zM854 86q34 0 59 25t25 59v512q0 34-25 60t-59 26h-512q-34 0-60-26t-26-60v-512q0-34 26-59t60-25h512zM170 256v598h598v84h-598q-34 0-59-25t-25-59v-598h84z"></path>
</symbol>
<symbol id="icon-sort_by_alpha" viewBox="0 0 1024 1024">
<title>sort_by_alpha</title>
<path class="path1" d="M672 688h260v68h-364v-54l252-366h-250v-68h354v54zM212 582h166l-84-222zM260 268h70l192 488h-78l-40-104h-218l-40 104h-78zM438 826h198l-100 100zM638 198h-202l100-100z"></path>
</symbol>
<symbol id="icon-import_export" viewBox="0 0 1024 1024">
<title>import_export</title>
<path class="path1" d="M682 726h128l-170 170-170-170h128v-300h84v300zM384 128l170 170h-128v300h-84v-300h-128z"></path>
</symbol>
<symbol id="icon-add_circle_outline" viewBox="0 0 1024 1024">
<title>add_circle_outline</title>
<path class="path1" d="M512 854q140 0 241-101t101-241-101-241-241-101-241 101-101 241 101 241 241 101zM512 86q176 0 301 125t125 301-125 301-301 125-301-125-125-301 125-301 301-125zM554 298v172h172v84h-172v172h-84v-172h-172v-84h172v-172h84z"></path>
</symbol>
<symbol id="icon-clear" viewBox="0 0 1024 1024">
<title>clear</title>
<path class="path1" d="M810 274l-238 238 238 238-60 60-238-238-238 238-60-60 238-238-238-238 60-60 238 238 238-238z"></path>
</symbol>
<symbol id="icon-save" viewBox="0 0 1024 1024">
<title>save</title>
<path class="path1" d="M640 384v-170h-426v170h426zM512 810q52 0 90-38t38-90-38-90-90-38-90 38-38 90 38 90 90 38zM726 128l170 170v512q0 34-26 60t-60 26h-596q-36 0-61-26t-25-60v-596q0-34 25-60t61-26h512z"></path>
</symbol>
<symbol id="icon-attach_file" viewBox="0 0 1024 1024">
<title>attach_file</title>
<path class="path1" d="M704 256h64v490q0 98-68 167t-166 69-167-69-69-167v-532q0-70 51-121t121-51 120 51 50 121v448q0 44-31 75t-75 31-76-31-32-75v-406h64v406q0 18 13 30t31 12 30-12 12-30v-448q0-44-31-76t-75-32-76 32-32 76v532q0 70 51 121t121 51 120-51 50-121v-490z"></path>
</symbol>
<symbol id="icon-collections" viewBox="0 0 1024 1024">
<title>collections</title>
<path class="path1" d="M86 256h84v598h598v84h-598q-34 0-59-25t-25-59v-598zM470 512l-128 170h512l-172-212-126 158zM938 682q0 34-25 60t-59 26h-512q-34 0-60-26t-26-60v-512q0-34 26-59t60-25h512q34 0 59 25t25 59v512z"></path>
</symbol>
<symbol id="icon-remove_red_eye" viewBox="0 0 1024 1024">
<title>remove_red_eye</title>
<path class="path1" d="M512 384q52 0 90 38t38 90-38 90-90 38-90-38-38-90 38-90 90-38zM512 726q88 0 151-63t63-151-63-151-151-63-151 63-63 151 63 151 151 63zM512 192q158 0 286 88t184 232q-56 144-184 232t-286 88-286-88-184-232q56-144 184-232t286-88z"></path>
</symbol>
<symbol id="icon-apps" viewBox="0 0 1024 1024">
<title>apps</title>
<path class="path1" d="M682 854v-172h172v172h-172zM682 598v-172h172v172h-172zM426 342v-172h172v172h-172zM682 170h172v172h-172v-172zM426 598v-172h172v172h-172zM170 598v-172h172v172h-172zM170 854v-172h172v172h-172zM426 854v-172h172v172h-172zM170 342v-172h172v172h-172z"></path>
</symbol>
<symbol id="icon-menu" viewBox="0 0 1024 1024">
<title>menu</title>
<path class="path1" d="M128 256h768v86h-768v-86zM128 554v-84h768v84h-768zM128 768v-86h768v86h-768z"></path>
</symbol>
<symbol id="icon-more_vert" viewBox="0 0 1024 1024">
<title>more_vert</title>
<path class="path1" d="M512 682q34 0 60 26t26 60-26 60-60 26-60-26-26-60 26-60 60-26zM512 426q34 0 60 26t26 60-26 60-60 26-60-26-26-60 26-60 60-26zM512 342q-34 0-60-26t-26-60 26-60 60-26 60 26 26 60-26 60-60 26z"></path>
</symbol>
<symbol id="icon-person" viewBox="0 0 1024 1024">
<title>person</title>
<path class="path1" d="M512 598q108 0 225 47t117 123v86h-684v-86q0-76 117-123t225-47zM512 512q-70 0-120-50t-50-120 50-121 120-51 120 51 50 121-50 120-120 50z"></path>
</symbol>
<symbol id="icon-exit_to_app" viewBox="0 0 1024 1024">
<title>exit_to_app</title>
<path class="path1" d="M810 128q34 0 60 26t26 60v596q0 34-26 60t-60 26h-596q-36 0-61-26t-25-60v-170h86v170h596v-596h-596v170h-86v-170q0-34 25-60t61-26h596zM430 666l110-112h-412v-84h412l-110-112 60-60 214 214-214 214z"></path>
</symbol>
<symbol id="icon-list" viewBox="0 0 1024 1024">
<title>list</title>
<path class="path1" d="M298 298h598v86h-598v-86zM298 726v-86h598v86h-598zM298 554v-84h598v84h-598zM128 384v-86h86v86h-86zM128 726v-86h86v86h-86zM128 554v-84h86v84h-86z"></path>
</symbol>
<symbol id="icon-query_builder" viewBox="0 0 1024 1024">
<title>query_builder</title>
<path class="path1" d="M534 298v224l192 114-32 54-224-136v-256h64zM512 854q140 0 241-101t101-241-101-241-241-101-241 101-101 241 101 241 241 101zM512 86q176 0 301 125t125 301-125 301-301 125-301-125-125-301 125-301 301-125z"></path>
</symbol>
<symbol id="icon-search" viewBox="0 0 1024 1024">
<title>search</title>
<path class="path1" d="M406 598q80 0 136-56t56-136-56-136-136-56-136 56-56 136 56 136 136 56zM662 598l212 212-64 64-212-212v-34l-12-12q-76 66-180 66-116 0-197-80t-81-196 81-197 197-81 196 81 80 197q0 104-66 180l12 12h34z"></path>
</symbol>
<symbol id="icon-today" viewBox="0 0 1024 1024">
<title>today</title>
<path class="path1" d="M298 426h214v214h-214v-214zM810 810v-468h-596v468h596zM810 128q34 0 60 26t26 60v596q0 34-26 60t-60 26h-596q-36 0-61-26t-25-60v-596q0-34 25-60t61-26h42v-86h86v86h340v-86h86v86h42z"></path>
</symbol>
<symbol id="icon-help_outline" viewBox="0 0 1024 1024">
<title>help_outline</title>
<path class="path1" d="M512 256q70 0 120 50t50 120q0 54-64 111t-64 103h-84q0-46 20-79t44-48 44-37 20-50q0-34-26-59t-60-25-60 25-26 59h-84q0-70 50-120t120-50zM512 854q140 0 241-101t101-241-101-241-241-101-241 101-101 241 101 241 241 101zM512 86q176 0 301 125t125 301-125 301-301 125-301-125-125-301 125-301 301-125zM470 768v-86h84v86h-84z"></path>
</symbol>
<symbol id="icon-copyright" viewBox="0 0 1024 1024">
<title>copyright</title>
<path class="path1" d="M512 854q140 0 241-101t101-241-101-241-241-101-241 101-101 241 101 241 241 101zM512 86q176 0 301 125t125 301-125 301-301 125-301-125-125-301 125-301 301-125zM506 390q-80 0-80 116v12q0 116 80 116 30 0 50-17t20-43h76q0 50-44 88-42 36-102 36-80 0-122-48t-42-132v-12q0-82 40-128 48-54 124-54 66 0 104 38 42 42 42 98h-76q0-14-6-26-10-20-14-24-20-20-50-20z"></path>
</symbol>
<symbol id="icon-av_timer" viewBox="0 0 1024 1024">
<title>av_timer</title>
<path class="path1" d="M256 512q0-18 12-30t30-12 31 12 13 30-13 30-31 12-30-12-12-30zM768 512q0 18-12 30t-30 12-31-12-13-30 13-30 31-12 30 12 12 30zM470 128h42q160 0 272 112t112 272-112 272-272 112-272-112-112-272q0-192 154-306v-2l290 290-60 60-232-230q-66 82-66 188 0 124 87 211t211 87 211-87 87-211q0-112-74-196t-182-100v82h-84v-170zM470 726q0-18 12-31t30-13 30 13 12 31-12 30-30 12-30-12-12-30z"></path>
</symbol>
<symbol id="icon-hearing" viewBox="0 0 1024 1024">
<title>hearing</title>
<path class="path1" d="M490 384q0-44 32-75t76-31 75 31 31 75-31 75-75 31-76-31-32-75zM326 112q-112 112-112 272t112 272l-60 60q-138-138-138-332t138-332zM726 854q34 0 59-26t25-60h86q0 70-50 120t-120 50q-40 0-70-14-82-42-118-152-14-44-72-88-82-60-122-134-46-82-46-166 0-126 87-212t213-86 212 86 86 212h-86q0-90-61-152t-151-62-152 62-62 152q0 64 34 126 28 54 100 108 80 60 102 128 26 76 72 100 16 8 34 8z"></path>
</symbol>
<symbol id="icon-play_circle_outline" viewBox="0 0 1024 1024">
<title>play_circle_outline</title>
<path class="path1" d="M512 854q140 0 241-101t101-241-101-241-241-101-241 101-101 241 101 241 241 101zM512 86q176 0 301 125t125 301-125 301-301 125-301-125-125-301 125-301 301-125zM426 704v-384l256 192z"></path>
</symbol>
<symbol id="icon-volume_up" viewBox="0 0 1024 1024">
<title>volume_up</title>
<path class="path1" d="M598 138q130 28 214 133t84 241-84 241-214 133v-88q94-28 153-106t59-180-59-180-153-106v-88zM704 512q0 120-106 172v-344q106 52 106 172zM128 384h170l214-214v684l-214-214h-170v-256z"></path>
</symbol>
<symbol id="icon-contacts" viewBox="0 0 1024 1024">
<title>contacts</title>
<path class="path1" d="M726 726v-64q0-48-73-78t-141-30-141 30-73 78v64h428zM512 288q-40 0-68 28t-28 68 28 68 68 28 68-28 28-68-28-68-68-28zM854 170q34 0 59 26t25 60v512q0 34-25 60t-59 26h-684q-34 0-59-26t-25-60v-512q0-34 25-60t59-26h684zM170 1024v-86h684v86h-684zM854 0v86h-684v-86h684z"></path>
</symbol>
<symbol id="icon-forum" viewBox="0 0 1024 1024">
<title>forum</title>
<path class="path1" d="M726 512q0 18-13 30t-31 12h-426l-170 172v-598q0-18 12-30t30-12h554q18 0 31 12t13 30v384zM896 256q18 0 30 12t12 30v640l-170-170h-470q-18 0-30-12t-12-30v-86h554v-384h86z"></path>
</symbol>
<symbol id="icon-swap_calls" viewBox="0 0 1024 1024">
<title>swap_calls</title>
<path class="path1" d="M768 170l170 172h-128v298q0 70-50 120t-120 50-120-50-50-120v-298q0-34-26-60t-60-26-60 26-26 60v298h128l-170 170-170-170h128v-298q0-70 50-121t120-51 120 51 50 121v298q0 34 26 60t60 26 60-26 26-60v-298h-128z"></path>
</symbol>
<symbol id="icon-content_paste" viewBox="0 0 1024 1024">
<title>content_paste</title>
<path class="path1" d="M810 854v-684h-84v128h-428v-128h-84v684h596zM512 86q-18 0-30 12t-12 30 12 30 30 12 30-12 12-30-12-30-30-12zM810 86q34 0 60 25t26 59v684q0 34-26 59t-60 25h-596q-34 0-60-25t-26-59v-684q0-34 26-59t60-25h178q14-38 46-62t74-24 74 24 46 62h178z"></path>
</symbol>
<symbol id="icon-create" viewBox="0 0 1024 1024">
<title>create</title>
<path class="path1" d="M884 300l-78 78-160-160 78-78q12-12 30-12t30 12l100 100q12 12 12 30t-12 30zM128 736l472-472 160 160-472 472h-160v-160z"></path>
</symbol>
<symbol id="icon-insert_link" viewBox="0 0 1024 1024">
<title>insert_link</title>
<path class="path1" d="M726 298q88 0 150 63t62 151-62 151-150 63h-172v-82h172q54 0 93-39t39-93-39-93-93-39h-172v-82h172zM342 554v-84h340v84h-340zM166 512q0 54 39 93t93 39h172v82h-172q-88 0-150-63t-62-151 62-151 150-63h172v82h-172q-54 0-93 39t-39 93z"></path>
</symbol>
<symbol id="icon-keyboard_arrow_down" viewBox="0 0 1024 1024">
<title>keyboard_arrow_down</title>
<path class="path1" d="M316 334l196 196 196-196 60 60-256 256-256-256z"></path>
</symbol>
<symbol id="icon-keyboard_arrow_up" viewBox="0 0 1024 1024">
<title>keyboard_arrow_up</title>
<path class="path1" d="M316 658l-60-60 256-256 256 256-60 60-196-196z"></path>
</symbol>
<symbol id="icon-memory" viewBox="0 0 1024 1024">
<title>memory</title>
<path class="path1" d="M726 726v-428h-428v428h428zM896 470h-86v84h86v86h-86v86q0 34-25 59t-59 25h-86v86h-86v-86h-84v86h-86v-86h-86q-34 0-59-25t-25-59v-86h-86v-86h86v-84h-86v-86h86v-86q0-34 25-59t59-25h86v-86h86v86h84v-86h86v86h86q34 0 59 25t25 59v86h86v86zM554 554v-84h-84v84h84zM640 384v256h-256v-256h256z"></path>
</symbol>
<symbol id="icon-flare" viewBox="0 0 1024 1024">
<title>flare</title>
<path class="path1" d="M470 982v-256h84v256h-84zM240 724l92-92 60 60-92 92zM632 692l60-60 92 92-60 60zM512 384q52 0 90 38t38 90-38 90-90 38-90-38-38-90 38-90 90-38zM726 470h256v84h-256v-84zM784 300l-92 92-60-60 92-92zM554 42v256h-84v-256h84zM392 332l-60 60-92-92 60-60zM298 470v84h-256v-84h256z"></path>
</symbol>
<symbol id="icon-flip" viewBox="0 0 1024 1024">
<title>flip</title>
<path class="path1" d="M810 896v-86h86q0 34-26 60t-60 26zM810 554v-84h86v84h-86zM640 214v-86h86v86h-86zM810 726v-86h86v86h-86zM470 982v-940h84v940h-84zM810 128q34 0 60 26t26 60h-86v-86zM128 214q0-34 26-60t60-26h170v86h-170v596h170v86h-170q-34 0-60-26t-26-60v-596zM810 384v-86h86v86h-86zM640 896v-86h86v86h-86z"></path>
</symbol>
<symbol id="icon-arrow_back" viewBox="0 0 1024 1024">
<title>arrow_back</title>
<path class="path1" d="M854 470v84h-520l238 240-60 60-342-342 342-342 60 60-238 240h520z"></path>
</symbol>
<symbol id="icon-arrow_forward" viewBox="0 0 1024 1024">
<title>arrow_forward</title>
<path class="path1" d="M512 170l342 342-342 342-60-60 238-240h-520v-84h520l-238-240z"></path>
</symbol>
<symbol id="icon-check" viewBox="0 0 1024 1024">
<title>check</title>
<path class="path1" d="M384 690l452-452 60 60-512 512-238-238 60-60z"></path>
</symbol>
<symbol id="icon-fullscreen_exit" viewBox="0 0 1024 1024">
<title>fullscreen_exit</title>
<path class="path1" d="M682 342h128v84h-212v-212h84v128zM598 810v-212h212v84h-128v128h-84zM342 342v-128h84v212h-212v-84h128zM214 682v-84h212v212h-84v-128h-128z"></path>
</symbol>
<symbol id="icon-school" viewBox="0 0 1024 1024">
<title>school</title>
<path class="path1" d="M512 128l470 256v342h-86v-296l-384 210-470-256zM214 562l298 164 298-164v172l-298 162-298-162v-172z"></path>
</symbol>
<symbol id="icon-check_box" viewBox="0 0 1024 1024">
<title>check_box</title>
<path class="path1" d="M426 726l384-384-60-62-324 324-152-152-60 60zM810 128q36 0 61 26t25 60v596q0 34-25 60t-61 26h-596q-36 0-61-26t-25-60v-596q0-34 25-60t61-26h596z"></path>
</symbol>
</defs>
</svg>
