<svg style="position: absolute; width: 0; height: 0;" width="0" height="0" version="1.1" xmlns="http://www.w3.org/2000/svg" xmlns:xlink="http://www.w3.org/1999/xlink">
<defs>
<symbol id="icon-delete" viewBox="0 0 24 24">
<title>delete</title>
<path class="path1" d="M18.984 3.984v2.016h-13.969v-2.016h3.469l1.031-0.984h4.969l1.031 0.984h3.469zM6 18.984v-12h12v12c0 1.078-0.938 2.016-2.016 2.016h-7.969c-1.078 0-2.016-0.938-2.016-2.016z"></path>
</symbol>
<symbol id="icon-do_not_disturb_off" viewBox="0 0 24 24">
<title>do_not_disturb_off</title>
<path class="path1" d="M6.984 12.984h3.469l-2.016-1.969h-1.453v1.969zM2.25 2.25l19.5 19.5-1.313 1.266-2.766-2.813c-1.594 1.125-3.563 1.781-5.672 1.781-5.531 0-9.984-4.453-9.984-9.984 0-2.109 0.656-4.078 1.781-5.672l-2.813-2.766zM17.016 11.016h-3.469l-7.219-7.219c1.594-1.125 3.563-1.781 5.672-1.781 5.531 0 9.984 4.453 9.984 9.984 0 2.109-0.656 4.078-1.781 5.672l-4.641-4.688h1.453v-1.969z"></path>
</symbol>
<symbol id="icon-input" viewBox="0 0 24 24">
<title>input</title>
<path class="path1" d="M11.016 15.984v-3h-10.031v-1.969h10.031v-3l3.984 3.984zM21 3c1.078 0 2.016 0.891 2.016 2.016v14.016c0 1.078-0.938 1.969-2.016 1.969h-18c-1.078 0-2.016-0.891-2.016-1.969v-4.031h2.016v4.031h18v-14.063h-18v4.031h-2.016v-3.984c0-1.078 0.938-2.016 2.016-2.016h18z"></path>
</symbol>
<symbol id="icon-lock_outline" viewBox="0 0 24 24">
<title>lock_outline</title>
<path class="path1" d="M18 20.016v-10.031h-12v10.031h12zM8.906 6v2.016h6.188v-2.016c0-1.688-1.406-3.094-3.094-3.094s-3.094 1.406-3.094 3.094zM18 8.016c1.078 0 2.016 0.891 2.016 1.969v10.031c0 1.078-0.938 1.969-2.016 1.969h-12c-1.078 0-2.016-0.891-2.016-1.969v-10.031c0-1.078 0.938-1.969 2.016-1.969h0.984v-2.016c0-2.766 2.25-5.016 5.016-5.016s5.016 2.25 5.016 5.016v2.016h0.984zM12 17.016c-1.078 0-2.016-0.938-2.016-2.016s0.938-2.016 2.016-2.016 2.016 0.938 2.016 2.016-0.938 2.016-2.016 2.016z"></path>
</symbol>
<symbol id="icon-more_vert" viewBox="0 0 24 24">
<title>more_vert</title>
<path class="path1" d="M12 15.984c1.078 0 2.016 0.938 2.016 2.016s-0.938 2.016-2.016 2.016-2.016-0.938-2.016-2.016 0.938-2.016 2.016-2.016zM12 9.984c1.078 0 2.016 0.938 2.016 2.016s-0.938 2.016-2.016 2.016-2.016-0.938-2.016-2.016 0.938-2.016 2.016-2.016zM12 8.016c-1.078 0-2.016-0.938-2.016-2.016s0.938-2.016 2.016-2.016 2.016 0.938 2.016 2.016-0.938 2.016-2.016 2.016z"></path>
</symbol>
<symbol id="icon-open_in_browser" viewBox="0 0 24 24">
<title>open_in_browser</title>
<path class="path1" d="M12 9.984l3.984 4.031h-3v6h-1.969v-6h-3zM18.984 3.984c1.125 0 2.016 0.938 2.016 2.016v12c0 1.078-0.938 2.016-2.016 2.016h-3.984v-2.016h3.984v-9.984h-13.969v9.984h3.984v2.016h-3.984c-1.125 0-2.016-0.938-2.016-2.016v-12c0-1.078 0.891-2.016 2.016-2.016h13.969z"></path>
</symbol>
<symbol id="icon-publish" viewBox="0 0 24 24">
<title>publish</title>
<path class="path1" d="M5.016 14.016l6.984-7.031 6.984 7.031h-3.984v6h-6v-6h-3.984zM5.016 3.984h13.969v2.016h-13.969v-2.016z"></path>
</symbol>
<symbol id="icon-error_outline" viewBox="0 0 24 24">
<title>error_outline</title>
<path class="path1" d="M12 20.016q3.281 0 5.648-2.367t2.367-5.648-2.367-5.648-5.648-2.367-5.648 2.367-2.367 5.648 2.367 5.648 5.648 2.367zM12 2.016q4.125 0 7.055 2.93t2.93 7.055-2.93 7.055-7.055 2.93-7.055-2.93-2.93-7.055 2.93-7.055 7.055-2.93zM11.016 6.984h1.969v6h-1.969v-6zM11.016 15h1.969v2.016h-1.969v-2.016z"></path>
</symbol>
<symbol id="icon-library_books" viewBox="0 0 24 24">
<title>library_books</title>
<path class="path1" d="M18.984 6.984v-1.969h-9.984v1.969h9.984zM15 15v-2.016h-6v2.016h6zM18.984 11.016v-2.016h-9.984v2.016h9.984zM20.016 2.016q0.797 0 1.383 0.586t0.586 1.383v12q0 0.797-0.586 1.406t-1.383 0.609h-12q-0.797 0-1.406-0.609t-0.609-1.406v-12q0-0.797 0.609-1.383t1.406-0.586h12zM3.984 6v14.016h14.016v1.969h-14.016q-0.797 0-1.383-0.586t-0.586-1.383v-14.016h1.969z"></path>
</symbol>
<symbol id="icon-sort_by_alpha" viewBox="0 0 24 24">
<title>sort_by_alpha</title>
<path class="path1" d="M15.75 16.125h6.094v1.594h-8.531v-1.266l5.906-8.578h-5.859v-1.594h8.297v1.266zM4.969 13.641h3.891l-1.969-5.203zM6.094 6.281h1.641l4.5 11.438h-1.828l-0.938-2.438h-5.109l-0.938 2.438h-1.828zM10.266 19.359h4.641l-2.344 2.344zM14.953 4.641h-4.734l2.344-2.344z"></path>
</symbol>
<symbol id="icon-import_export" viewBox="0 0 24 24">
<title>import_export</title>
<path class="path1" d="M15.984 17.016h3l-3.984 3.984-3.984-3.984h3v-7.031h1.969v7.031zM9 3l3.984 3.984h-3v7.031h-1.969v-7.031h-3z"></path>
</symbol>
<symbol id="icon-add_circle_outline" viewBox="0 0 24 24">
<title>add_circle_outline</title>
<path class="path1" d="M12 20.016q3.281 0 5.648-2.367t2.367-5.648-2.367-5.648-5.648-2.367-5.648 2.367-2.367 5.648 2.367 5.648 5.648 2.367zM12 2.016q4.125 0 7.055 2.93t2.93 7.055-2.93 7.055-7.055 2.93-7.055-2.93-2.93-7.055 2.93-7.055 7.055-2.93zM12.984 6.984v4.031h4.031v1.969h-4.031v4.031h-1.969v-4.031h-4.031v-1.969h4.031v-4.031h1.969z"></path>
</symbol>
<symbol id="icon-clear" viewBox="0 0 24 24">
<title>clear</title>
<path class="path1" d="M18.984 6.422l-5.578 5.578 5.578 5.578-1.406 1.406-5.578-5.578-5.578 5.578-1.406-1.406 5.578-5.578-5.578-5.578 1.406-1.406 5.578 5.578 5.578-5.578z"></path>
</symbol>
<symbol id="icon-save" viewBox="0 0 24 24">
<title>save</title>
<path class="path1" d="M15 9v-3.984h-9.984v3.984h9.984zM12 18.984q1.219 0 2.109-0.891t0.891-2.109-0.891-2.109-2.109-0.891-2.109 0.891-0.891 2.109 0.891 2.109 2.109 0.891zM17.016 3l3.984 3.984v12q0 0.797-0.609 1.406t-1.406 0.609h-13.969q-0.844 0-1.43-0.609t-0.586-1.406v-13.969q0-0.797 0.586-1.406t1.43-0.609h12z"></path>
</symbol>
<symbol id="icon-attach_file" viewBox="0 0 24 24">
<title>attach_file</title>
<path class="path1" d="M16.5 6h1.5v11.484q0 2.297-1.594 3.914t-3.891 1.617-3.914-1.617-1.617-3.914v-12.469q0-1.641 1.195-2.836t2.836-1.195 2.813 1.195 1.172 2.836v10.5q0 1.031-0.727 1.758t-1.758 0.727-1.781-0.727-0.75-1.758v-9.516h1.5v9.516q0 0.422 0.305 0.703t0.727 0.281 0.703-0.281 0.281-0.703v-10.5q0-1.031-0.727-1.781t-1.758-0.75-1.781 0.75-0.75 1.781v12.469q0 1.641 1.195 2.836t2.836 1.195 2.813-1.195 1.172-2.836v-11.484z"></path>
</symbol>
<symbol id="icon-collections" viewBox="0 0 24 24">
<title>collections</title>
<path class="path1" d="M2.016 6h1.969v14.016h14.016v1.969h-14.016q-0.797 0-1.383-0.586t-0.586-1.383v-14.016zM11.016 12l-3 3.984h12l-4.031-4.969-2.953 3.703zM21.984 15.984q0 0.797-0.586 1.406t-1.383 0.609h-12q-0.797 0-1.406-0.609t-0.609-1.406v-12q0-0.797 0.609-1.383t1.406-0.586h12q0.797 0 1.383 0.586t0.586 1.383v12z"></path>
</symbol>
<symbol id="icon-remove_red_eye" viewBox="0 0 24 24">
<title>remove_red_eye</title>
<path class="path1" d="M12 9q1.219 0 2.109 0.891t0.891 2.109-0.891 2.109-2.109 0.891-2.109-0.891-0.891-2.109 0.891-2.109 2.109-0.891zM12 17.016q2.063 0 3.539-1.477t1.477-3.539-1.477-3.539-3.539-1.477-3.539 1.477-1.477 3.539 1.477 3.539 3.539 1.477zM12 4.5q3.703 0 6.703 2.063t4.313 5.438q-1.313 3.375-4.313 5.438t-6.703 2.063-6.703-2.063-4.313-5.438q1.313-3.375 4.313-5.438t6.703-2.063z"></path>
</symbol>
<symbol id="icon-apps" viewBox="0 0 24 24">
<title>apps</title>
<path class="path1" d="M15.984 20.016v-4.031h4.031v4.031h-4.031zM15.984 14.016v-4.031h4.031v4.031h-4.031zM9.984 8.016v-4.031h4.031v4.031h-4.031zM15.984 3.984h4.031v4.031h-4.031v-4.031zM9.984 14.016v-4.031h4.031v4.031h-4.031zM3.984 14.016v-4.031h4.031v4.031h-4.031zM3.984 20.016v-4.031h4.031v4.031h-4.031zM9.984 20.016v-4.031h4.031v4.031h-4.031zM3.984 8.016v-4.031h4.031v4.031h-4.031z"></path>
</symbol>
<symbol id="icon-menu" viewBox="0 0 24 24">
<title>menu</title>
<path class="path1" d="M3 6h18v2.016h-18v-2.016zM3 12.984v-1.969h18v1.969h-18zM3 18v-2.016h18v2.016h-18z"></path>
</symbol>
<symbol id="icon-more_vert2" viewBox="0 0 24 24">
<title>more_vert2</title>
<path class="path1" d="M12 15.984q0.797 0 1.406 0.609t0.609 1.406-0.609 1.406-1.406 0.609-1.406-0.609-0.609-1.406 0.609-1.406 1.406-0.609zM12 9.984q0.797 0 1.406 0.609t0.609 1.406-0.609 1.406-1.406 0.609-1.406-0.609-0.609-1.406 0.609-1.406 1.406-0.609zM12 8.016q-0.797 0-1.406-0.609t-0.609-1.406 0.609-1.406 1.406-0.609 1.406 0.609 0.609 1.406-0.609 1.406-1.406 0.609z"></path>
</symbol>
<symbol id="icon-person" viewBox="0 0 24 24">
<title>person</title>
<path class="path1" d="M12 14.016q2.531 0 5.273 1.102t2.742 2.883v2.016h-16.031v-2.016q0-1.781 2.742-2.883t5.273-1.102zM12 12q-1.641 0-2.813-1.172t-1.172-2.813 1.172-2.836 2.813-1.195 2.813 1.195 1.172 2.836-1.172 2.813-2.813 1.172z"></path>
</symbol>
<symbol id="icon-exit_to_app" viewBox="0 0 24 24">
<title>exit_to_app</title>
<path class="path1" d="M18.984 3q0.797 0 1.406 0.609t0.609 1.406v13.969q0 0.797-0.609 1.406t-1.406 0.609h-13.969q-0.844 0-1.43-0.609t-0.586-1.406v-3.984h2.016v3.984h13.969v-13.969h-13.969v3.984h-2.016v-3.984q0-0.797 0.586-1.406t1.43-0.609h13.969zM10.078 15.609l2.578-2.625h-9.656v-1.969h9.656l-2.578-2.625 1.406-1.406 5.016 5.016-5.016 5.016z"></path>
</symbol>
<symbol id="icon-list" viewBox="0 0 24 24">
<title>list</title>
<path class="path1" d="M6.984 6.984h14.016v2.016h-14.016v-2.016zM6.984 17.016v-2.016h14.016v2.016h-14.016zM6.984 12.984v-1.969h14.016v1.969h-14.016zM3 9v-2.016h2.016v2.016h-2.016zM3 17.016v-2.016h2.016v2.016h-2.016zM3 12.984v-1.969h2.016v1.969h-2.016z"></path>
</symbol>
<symbol id="icon-query_builder" viewBox="0 0 24 24">
<title>query_builder</title>
<path class="path1" d="M12.516 6.984v5.25l4.5 2.672-0.75 1.266-5.25-3.188v-6h1.5zM12 20.016q3.281 0 5.648-2.367t2.367-5.648-2.367-5.648-5.648-2.367-5.648 2.367-2.367 5.648 2.367 5.648 5.648 2.367zM12 2.016q4.125 0 7.055 2.93t2.93 7.055-2.93 7.055-7.055 2.93-7.055-2.93-2.93-7.055 2.93-7.055 7.055-2.93z"></path>
</symbol>
<symbol id="icon-search" viewBox="0 0 24 24">
<title>search</title>
<path class="path1" d="M9.516 14.016q1.875 0 3.188-1.313t1.313-3.188-1.313-3.188-3.188-1.313-3.188 1.313-1.313 3.188 1.313 3.188 3.188 1.313zM15.516 14.016l4.969 4.969-1.5 1.5-4.969-4.969v-0.797l-0.281-0.281q-1.781 1.547-4.219 1.547-2.719 0-4.617-1.875t-1.898-4.594 1.898-4.617 4.617-1.898 4.594 1.898 1.875 4.617q0 2.438-1.547 4.219l0.281 0.281h0.797z"></path>
</symbol>
<symbol id="icon-today" viewBox="0 0 24 24">
<title>today</title>
<path class="path1" d="M6.984 9.984h5.016v5.016h-5.016v-5.016zM18.984 18.984v-10.969h-13.969v10.969h13.969zM18.984 3q0.797 0 1.406 0.609t0.609 1.406v13.969q0 0.797-0.609 1.406t-1.406 0.609h-13.969q-0.844 0-1.43-0.609t-0.586-1.406v-13.969q0-0.797 0.586-1.406t1.43-0.609h0.984v-2.016h2.016v2.016h7.969v-2.016h2.016v2.016h0.984z"></path>
</symbol>
<symbol id="icon-help_outline" viewBox="0 0 24 24">
<title>help_outline</title>
<path class="path1" d="M12 6q1.641 0 2.813 1.172t1.172 2.813q0 1.266-1.5 2.602t-1.5 2.414h-1.969q0-1.078 0.469-1.852t1.031-1.125 1.031-0.867 0.469-1.172q0-0.797-0.609-1.383t-1.406-0.586-1.406 0.586-0.609 1.383h-1.969q0-1.641 1.172-2.813t2.813-1.172zM12 20.016q3.281 0 5.648-2.367t2.367-5.648-2.367-5.648-5.648-2.367-5.648 2.367-2.367 5.648 2.367 5.648 5.648 2.367zM12 2.016q4.125 0 7.055 2.93t2.93 7.055-2.93 7.055-7.055 2.93-7.055-2.93-2.93-7.055 2.93-7.055 7.055-2.93zM11.016 18v-2.016h1.969v2.016h-1.969z"></path>
</symbol>
<symbol id="icon-copyright" viewBox="0 0 24 24">
<title>copyright</title>
<path class="path1" d="M12 20.016q3.281 0 5.648-2.367t2.367-5.648-2.367-5.648-5.648-2.367-5.648 2.367-2.367 5.648 2.367 5.648 5.648 2.367zM12 2.016q4.125 0 7.055 2.93t2.93 7.055-2.93 7.055-7.055 2.93-7.055-2.93-2.93-7.055 2.93-7.055 7.055-2.93zM11.859 9.141q-1.875 0-1.875 2.719v0.281q0 2.719 1.875 2.719 0.703 0 1.172-0.398t0.469-1.008h1.781q0 1.172-1.031 2.063-0.984 0.844-2.391 0.844-1.875 0-2.859-1.125t-0.984-3.094v-0.281q0-1.922 0.938-3 1.125-1.266 2.906-1.266 1.547 0 2.438 0.891 0.984 0.984 0.984 2.297h-1.781q0-0.328-0.141-0.609-0.234-0.469-0.328-0.563-0.469-0.469-1.172-0.469z"></path>
</symbol>
<symbol id="icon-av_timer" viewBox="0 0 32 32">
<title>av_timer</title>
<path class="path1" d="M8 16q0-0.563 0.375-0.938t0.938-0.375 0.969 0.375 0.406 0.938-0.406 0.938-0.969 0.375-0.938-0.375-0.375-0.938zM24 16q0 0.563-0.375 0.938t-0.938 0.375-0.969-0.375-0.406-0.938 0.406-0.938 0.969-0.375 0.938 0.375 0.375 0.938zM14.688 4h1.313q5 0 8.5 3.5t3.5 8.5-3.5 8.5-8.5 3.5-8.5-3.5-3.5-8.5q0-6 4.813-9.563v-0.063l9.063 9.063-1.875 1.875-7.25-7.188q-2.063 2.563-2.063 5.875 0 3.875 2.719 6.594t6.594 2.719 6.594-2.719 2.719-6.594q0-3.5-2.313-6.125t-5.688-3.125v2.563h-2.625v-5.313zM14.688 22.688q0-0.563 0.375-0.969t0.938-0.406 0.938 0.406 0.375 0.969-0.375 0.938-0.938 0.375-0.938-0.375-0.375-0.938z"></path>
</symbol>
<symbol id="icon-hearing" viewBox="0 0 32 32">
<title>hearing</title>
<path class="path1" d="M15.313 12q0-1.375 1-2.344t2.375-0.969 2.344 0.969 0.969 2.344-0.969 2.344-2.344 0.969-2.375-0.969-1-2.344zM10.188 3.5q-3.5 3.5-3.5 8.5t3.5 8.5l-1.875 1.875q-4.313-4.313-4.313-10.375t4.313-10.375zM22.688 26.688q1.063 0 1.844-0.813t0.781-1.875h2.688q0 2.188-1.563 3.75t-3.75 1.563q-1.25 0-2.188-0.438-2.563-1.313-3.688-4.75-0.438-1.375-2.25-2.75-2.563-1.875-3.813-4.188-1.438-2.563-1.438-5.188 0-3.938 2.719-6.625t6.656-2.688 6.625 2.688 2.688 6.625h-2.688q0-2.813-1.906-4.75t-4.719-1.938-4.75 1.938-1.938 4.75q0 2 1.063 3.938 0.875 1.688 3.125 3.375 2.5 1.875 3.188 4 0.813 2.375 2.25 3.125 0.5 0.25 1.063 0.25z"></path>
</symbol>
<symbol id="icon-play_circle_outline" viewBox="0 0 32 32">
<title>play_circle_outline</title>
<path class="path1" d="M16 26.688q4.375 0 7.531-3.156t3.156-7.531-3.156-7.531-7.531-3.156-7.531 3.156-3.156 7.531 3.156 7.531 7.531 3.156zM16 2.688q5.5 0 9.406 3.906t3.906 9.406-3.906 9.406-9.406 3.906-9.406-3.906-3.906-9.406 3.906-9.406 9.406-3.906zM13.313 22v-12l8 6z"></path>
</symbol>
<symbol id="icon-volume_up" viewBox="0 0 32 32">
<title>volume_up</title>
<path class="path1" d="M18.688 4.313q4.063 0.875 6.688 4.156t2.625 7.531-2.625 7.531-6.688 4.156v-2.75q2.938-0.875 4.781-3.313t1.844-5.625-1.844-5.625-4.781-3.313v-2.75zM22 16q0 3.75-3.313 5.375v-10.75q3.313 1.625 3.313 5.375zM4 12h5.313l6.688-6.688v21.375l-6.688-6.688h-5.313v-8z"></path>
</symbol>
<symbol id="icon-contacts" viewBox="0 0 32 32">
<title>contacts</title>
<path class="path1" d="M22.688 22.688v-2q0-1.5-2.281-2.438t-4.406-0.938-4.406 0.938-2.281 2.438v2h13.375zM16 9q-1.25 0-2.125 0.875t-0.875 2.125 0.875 2.125 2.125 0.875 2.125-0.875 0.875-2.125-0.875-2.125-2.125-0.875zM26.688 5.313q1.063 0 1.844 0.813t0.781 1.875v16q0 1.063-0.781 1.875t-1.844 0.813h-21.375q-1.063 0-1.844-0.813t-0.781-1.875v-16q0-1.063 0.781-1.875t1.844-0.813h21.375zM5.313 32v-2.688h21.375v2.688h-21.375zM26.688 0v2.688h-21.375v-2.688h21.375z"></path>
</symbol>
<symbol id="icon-forum" viewBox="0 0 32 32">
<title>forum</title>
<path class="path1" d="M22.688 16q0 0.563-0.406 0.938t-0.969 0.375h-13.313l-5.313 5.375v-18.688q0-0.563 0.375-0.938t0.938-0.375h17.313q0.563 0 0.969 0.375t0.406 0.938v12zM28 8q0.563 0 0.938 0.375t0.375 0.938v20l-5.313-5.313h-14.688q-0.563 0-0.938-0.375t-0.375-0.938v-2.688h17.313v-12h2.688z"></path>
</symbol>
<symbol id="icon-swap_calls" viewBox="0 0 32 32">
<title>swap_calls</title>
<path class="path1" d="M24 5.313l5.313 5.375h-4v9.313q0 2.188-1.563 3.75t-3.75 1.563-3.75-1.563-1.563-3.75v-9.313q0-1.063-0.813-1.875t-1.875-0.813-1.875 0.813-0.813 1.875v9.313h4l-5.313 5.313-5.313-5.313h4v-9.313q0-2.188 1.563-3.781t3.75-1.594 3.75 1.594 1.563 3.781v9.313q0 1.063 0.813 1.875t1.875 0.813 1.875-0.813 0.813-1.875v-9.313h-4z"></path>
</symbol>
<symbol id="icon-content_paste" viewBox="0 0 32 32">
<title>content_paste</title>
<path class="path1" d="M25.313 26.688v-21.375h-2.625v4h-13.375v-4h-2.625v21.375h18.625zM16 2.688q-0.563 0-0.938 0.375t-0.375 0.938 0.375 0.938 0.938 0.375 0.938-0.375 0.375-0.938-0.375-0.938-0.938-0.375zM25.313 2.688q1.063 0 1.875 0.781t0.813 1.844v21.375q0 1.063-0.813 1.844t-1.875 0.781h-18.625q-1.063 0-1.875-0.781t-0.813-1.844v-21.375q0-1.063 0.813-1.844t1.875-0.781h5.563q0.438-1.188 1.438-1.938t2.313-0.75 2.313 0.75 1.438 1.938h5.563z"></path>
</symbol>
<symbol id="icon-create" viewBox="0 0 32 32">
<title>create</title>
<path class="path1" d="M27.625 9.375l-2.438 2.438-5-5 2.438-2.438q0.375-0.375 0.938-0.375t0.938 0.375l3.125 3.125q0.375 0.375 0.375 0.938t-0.375 0.938zM4 23l14.75-14.75 5 5-14.75 14.75h-5v-5z"></path>
</symbol>
<symbol id="icon-insert_link" viewBox="0 0 32 32">
<title>insert_link</title>
<path class="path1" d="M22.688 9.313q2.75 0 4.688 1.969t1.938 4.719-1.938 4.719-4.688 1.969h-5.375v-2.563h5.375q1.688 0 2.906-1.219t1.219-2.906-1.219-2.906-2.906-1.219h-5.375v-2.563h5.375zM10.688 17.313v-2.625h10.625v2.625h-10.625zM5.188 16q0 1.688 1.219 2.906t2.906 1.219h5.375v2.563h-5.375q-2.75 0-4.688-1.969t-1.938-4.719 1.938-4.719 4.688-1.969h5.375v2.563h-5.375q-1.688 0-2.906 1.219t-1.219 2.906z"></path>
</symbol>
<symbol id="icon-keyboard_arrow_down" viewBox="0 0 32 32">
<title>keyboard_arrow_down</title>
<path class="path1" d="M9.875 10.438l6.125 6.125 6.125-6.125 1.875 1.875-8 8-8-8z"></path>
</symbol>
<symbol id="icon-keyboard_arrow_up" viewBox="0 0 32 32">
<title>keyboard_arrow_up</title>
<path class="path1" d="M9.875 20.563l-1.875-1.875 8-8 8 8-1.875 1.875-6.125-6.125z"></path>
</symbol>
<symbol id="icon-memory" viewBox="0 0 32 32">
<title>memory</title>
<path class="path1" d="M22.688 22.688v-13.375h-13.375v13.375h13.375zM28 14.688h-2.688v2.625h2.688v2.688h-2.688v2.688q0 1.063-0.781 1.844t-1.844 0.781h-2.688v2.688h-2.688v-2.688h-2.625v2.688h-2.688v-2.688h-2.688q-1.063 0-1.844-0.781t-0.781-1.844v-2.688h-2.688v-2.688h2.688v-2.625h-2.688v-2.688h2.688v-2.688q0-1.063 0.781-1.844t1.844-0.781h2.688v-2.688h2.688v2.688h2.625v-2.688h2.688v2.688h2.688q1.063 0 1.844 0.781t0.781 1.844v2.688h2.688v2.688zM17.313 17.313v-2.625h-2.625v2.625h2.625zM20 12v8h-8v-8h8z"></path>
</symbol>
<symbol id="icon-flare" viewBox="0 0 32 32">
<title>flare</title>
<path class="path1" d="M14.688 30.688v-8h2.625v8h-2.625zM7.5 22.625l2.875-2.875 1.875 1.875-2.875 2.875zM19.75 21.625l1.875-1.875 2.875 2.875-1.875 1.875zM16 12q1.625 0 2.813 1.188t1.188 2.813-1.188 2.813-2.813 1.188-2.813-1.188-1.188-2.813 1.188-2.813 2.813-1.188zM22.688 14.688h8v2.625h-8v-2.625zM24.5 9.375l-2.875 2.875-1.875-1.875 2.875-2.875zM17.313 1.313v8h-2.625v-8h2.625zM12.25 10.375l-1.875 1.875-2.875-2.875 1.875-1.875zM9.313 14.688v2.625h-8v-2.625h8z"></path>
</symbol>
<symbol id="icon-flip" viewBox="0 0 32 32">
<title>flip</title>
<path class="path1" d="M25.313 28v-2.688h2.688q0 1.063-0.813 1.875t-1.875 0.813zM25.313 17.313v-2.625h2.688v2.625h-2.688zM20 6.688v-2.688h2.688v2.688h-2.688zM25.313 22.688v-2.688h2.688v2.688h-2.688zM14.688 30.688v-29.375h2.625v29.375h-2.625zM25.313 4q1.063 0 1.875 0.813t0.813 1.875h-2.688v-2.688zM4 6.688q0-1.063 0.813-1.875t1.875-0.813h5.313v2.688h-5.313v18.625h5.313v2.688h-5.313q-1.063 0-1.875-0.813t-0.813-1.875v-18.625zM25.313 12v-2.688h2.688v2.688h-2.688zM20 28v-2.688h2.688v2.688h-2.688z"></path>
</symbol>
<symbol id="icon-arrow_back" viewBox="0 0 32 32">
<title>arrow_back</title>
<path class="path1" d="M26.688 14.688v2.625h-16.25l7.438 7.5-1.875 1.875-10.688-10.688 10.688-10.688 1.875 1.875-7.438 7.5h16.25z"></path>
</symbol>
<symbol id="icon-arrow_forward" viewBox="0 0 32 32">
<title>arrow_forward</title>
<path class="path1" d="M16 5.313l10.688 10.688-10.688 10.688-1.875-1.875 7.438-7.5h-16.25v-2.625h16.25l-7.438-7.5z"></path>
</symbol>
<symbol id="icon-check" viewBox="0 0 32 32">
<title>check</title>
<path class="path1" d="M12 21.563l14.125-14.125 1.875 1.875-16 16-7.438-7.438 1.875-1.875z"></path>
</symbol>
<symbol id="icon-fullscreen_exit" viewBox="0 0 32 32">
<title>fullscreen_exit</title>
<path class="path1" d="M21.313 10.688h4v2.625h-6.625v-6.625h2.625v4zM18.688 25.313v-6.625h6.625v2.625h-4v4h-2.625zM10.688 10.688v-4h2.625v6.625h-6.625v-2.625h4zM6.688 21.313v-2.625h6.625v6.625h-2.625v-4h-4z"></path>
</symbol>
<symbol id="icon-school" viewBox="0 0 32 32">
<title>school</title>
<path class="path1" d="M16 4l14.688 8v10.688h-2.688v-9.25l-12 6.563-14.688-8zM6.688 17.563l9.313 5.125 9.313-5.125v5.375l-9.313 5.063-9.313-5.063v-5.375z"></path>
</symbol>
<symbol id="icon-check_box" viewBox="0 0 32 32">
<title>check_box</title>
<path class="path1" d="M13.313 22.688l12-12-1.875-1.938-10.125 10.125-4.75-4.75-1.875 1.875zM25.313 4q1.125 0 1.906 0.813t0.781 1.875v18.625q0 1.063-0.781 1.875t-1.906 0.813h-18.625q-1.125 0-1.906-0.813t-0.781-1.875v-18.625q0-1.063 0.781-1.875t1.906-0.813h18.625z"></path>
</symbol>
</defs>
</svg>
